<svg width="1200" height="630" viewBox="0 0 1200 630" fill="none" xmlns="http://www.w3.org/2000/svg">
<g clip-path="url(#clip0_595_4)">
<path d="M1200 0H0V630H1200V0Z" fill="#DC2626"/>
<path d="M200 280C244.183 280 280 244.183 280 200C280 155.817 244.183 120 200 120C155.817 120 120 155.817 120 200C120 244.183 155.817 280 200 280Z" fill="white" fill-opacity="0.1"/>
<path d="M300 450C327.614 450 350 427.614 350 400C350 372.386 327.614 350 300 350C272.386 350 250 372.386 250 400C250 427.614 272.386 450 300 450Z" fill="white" fill-opacity="0.15"/>
<path d="M1000 370C1038.66 370 1070 338.66 1070 300C1070 261.34 1038.66 230 1000 230C961.34 230 930 261.34 930 300C930 338.66 961.34 370 1000 370Z" fill="white" fill-opacity="0.05"/>
<path d="M1050 108C1054.42 108 1058 104.418 1058 100C1058 95.5817 1054.42 92 1050 92C1045.58 92 1042 95.5817 1042 100C1042 104.418 1045.58 108 1050 108Z" fill="#FFD700" fill-opacity="0.8"/>
<path d="M1075 125C1077.76 125 1080 122.761 1080 120C1080 117.239 1077.76 115 1075 115C1072.24 115 1070 117.239 1070 120C1070 122.761 1072.24 125 1075 125Z" fill="#FFD700" fill-opacity="0.8"/>
<path d="M1020 134C1022.21 134 1024 132.209 1024 130C1024 127.791 1022.21 126 1020 126C1017.79 126 1016 127.791 1016 130C1016 132.209 1017.79 134 1020 134Z" fill="#FFD700" fill-opacity="0.8"/>
<path d="M1100 156C1103.31 156 1106 153.314 1106 150C1106 146.686 1103.31 144 1100 144C1096.69 144 1094 146.686 1094 150C1094 153.314 1096.69 156 1100 156Z" fill="#FFD700" fill-opacity="0.8"/>
<path d="M150 530C155.523 530 160 525.523 160 520C160 514.477 155.523 510 150 510C144.477 510 140 514.477 140 520C140 525.523 144.477 530 150 530Z" fill="#FFD700" fill-opacity="0.8"/>
<path d="M130 545C132.761 545 135 542.761 135 540C135 537.239 132.761 535 130 535C127.239 535 125 537.239 125 540C125 542.761 127.239 545 130 545Z" fill="#FFD700" fill-opacity="0.8"/>
<path d="M190 567C193.866 567 197 563.866 197 560C197 556.134 193.866 553 190 553C186.134 553 183 556.134 183 560C183 563.866 186.134 567 190 567Z" fill="#FFD700" fill-opacity="0.8"/>
<path d="M170 584C172.209 584 174 582.209 174 580C174 577.791 172.209 576 170 576C167.791 576 166 577.791 166 580C166 582.209 167.791 584 170 584Z" fill="#FFD700" fill-opacity="0.8"/>
<path d="M292.406 258.56C291.926 260.84 291.446 266 291.326 269C290.726 278.48 290.366 291.44 290.366 302.6C290.366 315.68 291.086 336.44 291.086 343.4C291.086 358.16 285.806 362.24 277.886 362.24C266.246 362.24 249.686 352.16 249.686 339.44C249.686 327.8 264.686 315.56 281.366 309.68C292.046 305.84 304.166 303.92 313.286 303.92C331.766 303.92 346.406 313.52 346.406 330.08C346.406 344.36 338.966 355.04 319.886 359.72C314.366 360.92 308.966 361.28 304.046 361.76L298.646 346.16C303.926 346.16 309.206 346.16 313.286 345.32C323.006 343.64 330.806 338.72 330.806 330.08C330.806 321.8 323.606 317.12 313.166 317.12C302.966 317.12 292.406 319.28 283.046 323C272.246 327.08 264.566 333.56 264.566 338.72C264.566 342.56 270.206 345.8 273.326 345.8C275.486 345.8 277.046 344.84 277.046 340.64C277.046 334.4 276.446 317.72 276.446 303.2C276.446 289.52 276.566 274.64 276.566 269.12C276.566 266.72 276.206 260.72 275.846 258.56H292.406ZM326.606 271.64C335.726 276.08 349.646 283.88 356.126 288.44L348.806 300.68C343.046 295.88 327.446 286.88 320.006 283.28L326.606 271.64ZM252.926 278.24C260.006 279.08 265.166 279.08 269.486 279.08C281.966 279.08 300.686 276.8 313.046 273.2L313.406 288.08C299.846 291.2 280.526 293.36 269.966 293.36C262.046 293.36 257.366 293.24 253.286 292.76L252.926 278.24ZM389.846 253.64L404.486 257.36C398.126 275.24 387.566 292.52 376.886 303.32C374.126 300.8 368.006 296 364.526 293.96C375.326 284.6 384.686 269.24 389.846 253.64ZM392.366 267.32H468.686V281.24H385.406L392.366 267.32ZM383.846 295.64H465.926V309.08H398.366V334.28H383.846V295.64ZM364.886 327.2H475.286V341.12H364.886V327.2ZM419.126 274.52H434.006V366.8H419.126V274.52ZM490.886 261.2H589.406V275.36H490.886V261.2ZM485.486 348.68H594.806V362.72H485.486V348.68ZM531.206 266.24H546.926V357.56H531.206V266.24ZM554.606 325.76L564.926 317.36C571.526 323.6 581.006 332.48 585.686 337.88L574.766 347.6C570.446 341.84 561.206 332.48 554.606 325.76ZM496.646 301.88H584.006V315.92H496.646V301.88ZM692.246 260C695.246 264.44 699.566 272 701.846 276.44L692.246 280.52C689.726 275.6 686.006 268.52 682.766 263.84L692.246 260ZM706.526 254.6C709.646 259.04 714.086 266.72 716.126 270.92L706.646 275C704.126 269.96 700.286 263 697.046 258.44L706.526 254.6ZM661.526 261.08C661.166 263.84 660.806 268.88 660.686 271.76C659.366 319.52 648.086 343.76 621.566 362.72L607.526 351.44C612.566 348.68 618.566 344.6 623.366 339.68C639.086 324.08 644.606 303.68 644.726 272.12C644.726 269.36 644.246 263.96 643.766 261.08H661.526ZM702.206 286.76C701.846 288.68 701.486 291.8 701.486 293.12C701.006 306.08 699.446 339.56 694.286 351.8C691.766 357.92 687.086 361.04 678.926 361.04C671.966 361.04 664.886 360.56 659.006 360.08L657.086 344C663.086 345.08 669.206 345.68 674.006 345.68C677.846 345.68 679.526 344.36 680.726 341.48C684.206 333.92 685.886 309.92 685.886 296.96H627.326C623.246 296.96 616.526 296.96 611.486 297.44V281.72C616.526 282.2 622.646 282.56 627.206 282.56H682.766C685.886 282.56 689.006 282.2 691.886 281.72L702.206 286.76ZM738.326 269.84C747.566 270.08 766.046 269.96 779.246 268.04C791.366 266.24 803.486 263.6 809.486 260.72L819.446 273.92C815.366 275 812.126 275.84 810.206 276.32C802.766 278.24 793.166 279.8 783.926 281.12C770.246 283.04 752.606 283.52 742.166 283.76L738.326 269.84ZM743.486 352.64C764.726 342.92 774.206 327.08 774.206 304.64C774.206 304.64 774.206 296.84 774.206 279.8L789.926 278C789.926 288.32 789.926 304.28 789.926 304.28C789.926 328.52 782.006 349.04 758.846 362.96L743.486 352.64ZM729.326 298.64C732.686 298.88 736.646 299.24 740.486 299.24C748.046 299.24 812.246 299.24 820.286 299.24C822.806 299.24 828.446 298.88 831.086 298.64V314.12C827.846 313.88 823.886 313.64 820.526 313.64C812.966 313.64 747.686 313.64 740.606 313.64C736.886 313.64 732.446 313.88 729.326 314.12V298.64ZM886.914 279.8C887.274 282.68 888.114 285.8 888.834 288.92C892.914 303.32 904.194 344.6 907.194 354.56C907.794 356.72 909.474 362 910.314 364.4L894.114 368.48C893.634 365.24 892.914 361.28 891.954 357.92C888.954 347.48 878.034 304.64 874.194 292.16C873.354 289.16 872.034 286.16 870.714 283.64L886.914 279.8ZM944.514 298.4C939.354 308.84 927.354 326.96 918.954 335.84L905.634 329.24C911.874 323.72 920.154 313.64 923.394 307.76C917.154 308.84 868.314 319.04 858.474 321.2L854.754 306.92C858.474 306.56 861.834 306.2 865.794 305.48C872.274 304.52 920.274 295.4 928.794 293.48C930.834 293 933.234 292.28 934.794 291.56L944.514 298.4Z" fill="white"/>
</g>
<defs>
<clipPath id="clip0_595_4">
<rect width="1200" height="630" fill="white"/>
</clipPath>
</defs>
</svg>
